<svg width="138" height="113" viewBox="0 0 138 113" fill="none" xmlns="http://www.w3.org/2000/svg">
<path d="M58.1292 80.607L65.6746 87.3097V78.9313H73.2201V75.4091V63.8501V62.1744C72.3033 62.1744 71.4315 62.1905 70.6579 62.2049C69.3459 62.2292 68.3166 62.2483 67.8305 62.1744C65.4378 61.8103 57.9525 62.9992 54.8955 63.8501L58.1292 68.8771V80.607Z" fill="#DE5B2D" style="mix-blend-mode:color-burn"/>
<path d="M58.1292 80.607L65.6746 87.3097V78.9313H73.2201V75.4091V63.8501V62.1744C72.3033 62.1744 71.4315 62.1905 70.6579 62.2049C69.3459 62.2292 68.3166 62.2483 67.8305 62.1744C65.4378 61.8103 57.9525 62.9992 54.8955 63.8501L58.1292 68.8771V80.607Z" stroke="black" stroke-linecap="round" stroke-linejoin="round"/>
<path d="M32.2595 64.341L37.9763 79.4223H52.7398V71.6024V63.7825H51.9314H51.123C50.7011 64.4517 50.3649 65.0756 50.0496 65.661C49.1388 67.3516 48.4015 68.7202 46.2724 69.9267H39.2659C38.0098 69.7551 37.3026 69.5444 36.0322 68.8095L32.2595 64.341Z" fill="#DA582C" style="mix-blend-mode:color-burn"/>
<path d="M32.2595 64.341L37.9763 79.4223H52.7398V71.6024V63.7825H51.9314H51.123C50.7011 64.4517 50.3649 65.0756 50.0496 65.661C49.1388 67.3516 48.4015 68.7202 46.2724 69.9267H39.2659C38.0098 69.7551 37.3026 69.5444 36.0322 68.8095L32.2595 64.341Z" stroke="black" stroke-linecap="round" stroke-linejoin="round"/>
<path d="M58.1477 80.5394V68.8095L54.914 63.7825H52.2192V71.6024V79.4223V79.9808C51.7042 81.5629 51.6157 82.4145 51.6802 83.8908C51.8921 85.6441 52.1938 86.4322 53.2971 87.2422C54.4443 87.7305 55.0297 87.7089 55.9919 87.2422C57.0943 86.3306 57.5707 85.7205 58.1477 84.4493V80.5394Z" fill="#2798EA" stroke="black" stroke-linecap="round" stroke-linejoin="round"/>
<path d="M30.6426 87.242C30.7432 90.3525 30.6075 91.3928 30.1036 92.2691L27.7964 92.8276C27.8468 93.1775 27.8973 93.5492 27.9478 93.9448C27.5303 96.0595 27.185 97.6944 26.8699 98.9366L27.2741 104.557L34.9542 104.669V91.1519H54.8956V104.959L65.6747 105.116V86.6834L58.1293 79.9807V83.8906C57.5523 85.1617 57.0759 85.7719 55.9735 86.6834C55.0113 87.1502 54.4259 87.1717 53.2787 86.6834C52.1754 85.8735 51.8737 85.0854 51.6619 83.332C51.5973 81.8557 51.6858 81.0042 52.2008 79.4221V78.8635H37.4373L37.649 79.4221L38.7269 82.2149C38.8469 83.9214 38.6125 84.603 37.9142 85.5663C37.0363 86.713 36.2021 86.8587 34.4153 86.6834H30.5597C30.5919 86.8567 30.6182 87.0417 30.6426 87.242Z" fill="#2798EA" stroke="black" stroke-linecap="round" stroke-linejoin="round"/>
<path d="M26.8699 66.5753L34.9542 86.125C36.7411 86.3003 37.5752 86.1546 38.4532 85.0079C39.1514 84.0446 39.3858 83.363 39.2658 81.6565L38.1879 78.8637L37.9762 78.3051L32.2594 63.2239H30.1036L26.8699 66.5753Z" fill="#2798EA" stroke="black" stroke-linecap="round" stroke-linejoin="round"/>
<path d="M25.4328 83.8907H29.3252C30.3682 84.6476 30.6928 85.2286 30.8593 86.1249H34.7148L26.6305 66.5752L23.6362 67.1337L25.4328 83.8907Z" fill="#DE5B2E" style="mix-blend-mode:color-burn"/>
<path d="M25.4328 83.8907H29.3252C30.3682 84.6476 30.6928 85.2286 30.8593 86.1249H34.7148L26.6305 66.5752L23.6362 67.1337L25.4328 83.8907Z" stroke="black" stroke-linecap="round" stroke-linejoin="round"/>
<path d="M54.3566 104.96V91.1523H34.4153V104.67L54.3566 104.96Z" fill="#2798EA" stroke="black" stroke-linecap="round" stroke-linejoin="round"/>
<path d="M29.1454 83.8911H25.2529L25.3727 85.0082C25.4912 85.1924 25.6052 85.364 25.715 85.5294C26.6496 86.9372 27.2854 87.895 27.9161 92.2696L30.2233 91.711C30.7272 90.8347 30.8629 89.7945 30.7623 86.6839C30.7379 86.4836 30.7116 86.2986 30.6794 86.1254C30.513 85.2291 30.1883 84.648 29.1454 83.8911Z" fill="#D5B29C" style="mix-blend-mode:color-burn"/>
<path d="M29.1454 83.8911H25.2529L25.3727 85.0082C25.4912 85.1924 25.6052 85.364 25.715 85.5294C26.6496 86.9372 27.2854 87.895 27.9161 92.2696L30.2233 91.711C30.7272 90.8347 30.8629 89.7945 30.7623 86.6839C30.7379 86.4836 30.7116 86.2986 30.6794 86.1254C30.513 85.2291 30.1883 84.648 29.1454 83.8911Z" stroke="black" stroke-linecap="round" stroke-linejoin="round"/>
<path d="M18.9347 82.7734L14.0841 87.242C13.1155 90.9669 13.2192 93.3344 14.0841 97.8547C14.8111 98.6426 15.5121 99.2772 16.2399 99.787C17.7583 100.85 19.3941 101.37 21.6295 101.603C22.5852 101.703 23.6506 101.75 24.8632 101.765C25.4616 101.54 25.9237 100.571 26.4801 98.378C26.7952 97.1358 27.1405 95.5009 27.558 93.3862C27.5075 92.9906 27.4571 92.6189 27.4066 92.269C26.7759 87.8945 26.1401 86.9367 25.2055 85.5288C25.0957 85.3634 24.9817 85.1918 24.8632 85.0077L24.8543 85.0027C23.3739 84.1742 22.541 83.7081 20.5516 82.7734H18.9347Z" fill="#E1BCA5" style="mix-blend-mode:color-burn"/>
<path d="M18.9347 82.7734L14.0841 87.242C13.1155 90.9669 13.2192 93.3344 14.0841 97.8547C14.8111 98.6426 15.5121 99.2772 16.2399 99.787C17.7583 100.85 19.3941 101.37 21.6295 101.603C22.5852 101.703 23.6506 101.75 24.8632 101.765C25.4616 101.54 25.9237 100.571 26.4801 98.378C26.7952 97.1358 27.1405 95.5009 27.558 93.3862C27.5075 92.9906 27.4571 92.6189 27.4066 92.269C26.7759 87.8945 26.1401 86.9367 25.2055 85.5288C25.0957 85.3634 24.9817 85.1918 24.8632 85.0077L24.8543 85.0027C23.3739 84.1742 22.541 83.7081 20.5516 82.7734H18.9347Z" stroke="black" stroke-linecap="round" stroke-linejoin="round"/>
<path d="M26.8699 98.4136C26.3135 100.607 25.8514 101.576 25.253 101.8C24.0404 101.785 22.975 101.738 22.0193 101.639L22.5583 111.296C24.6033 112.68 25.7516 112.819 27.7964 111.296L27.2742 104.034L26.8699 98.4136Z" fill="#8D715C" style="mix-blend-mode:color-burn"/>
<path d="M26.8699 98.4136C26.3135 100.607 25.8514 101.576 25.253 101.8C24.0404 101.785 22.975 101.738 22.0193 101.639L22.5583 111.296C24.6033 112.68 25.7516 112.819 27.7964 111.296L27.2742 104.034L26.8699 98.4136Z" stroke="black" stroke-linecap="round" stroke-linejoin="round"/>
<path d="M13.9729 87.1235L18.8236 82.655C16.9059 82.0521 15.4582 82.0851 12.3561 82.655C10.3559 83.8344 9.03907 84.9741 7.74083 86.5649C6.98173 87.4951 6.22897 88.5796 5.34966 89.9163C4.57398 92.0166 4.58682 93.1527 5.34966 94.9434C8.75364 97.8575 10.865 98.985 15.0509 99.9705L16.1288 99.6686C15.4009 99.1588 14.7 98.5241 13.9729 97.7362C13.108 93.2159 13.0044 90.8485 13.9729 87.1235Z" fill="#EAC6AF" style="mix-blend-mode:color-burn"/>
<path d="M13.9729 87.1235L18.8236 82.655C16.9059 82.0521 15.4582 82.0851 12.3561 82.655C10.3559 83.8344 9.03907 84.9741 7.74083 86.5649C6.98173 87.4951 6.22897 88.5796 5.34966 89.9163C4.57398 92.0166 4.58682 93.1527 5.34966 94.9434C8.75364 97.8575 10.865 98.985 15.0509 99.9705L16.1288 99.6686C15.4009 99.1588 14.7 98.5241 13.9729 97.7362C13.108 93.2159 13.0044 90.8485 13.9729 87.1235Z" stroke="black" stroke-linecap="round" stroke-linejoin="round"/>
<path d="M12.8569 82.2154C15.959 81.6455 17.4067 81.6125 19.3244 82.2154L18.0421 69.3684L17.7075 69.927L10.7011 77.7469C8.72632 80.8639 8.21874 82.4279 8.00635 85.0082L8.24169 86.1253C9.53993 84.5345 10.8567 83.3948 12.8569 82.2154Z" fill="#DE5A2D" style="mix-blend-mode:color-burn"/>
<path d="M12.8569 82.2154C15.959 81.6455 17.4067 81.6125 19.3244 82.2154L18.0421 69.3684L17.7075 69.927L10.7011 77.7469C8.72632 80.8639 8.21874 82.4279 8.00635 85.0082L8.24169 86.1253C9.53993 84.5345 10.8567 83.3948 12.8569 82.2154Z" stroke="black" stroke-linecap="round" stroke-linejoin="round"/>
<path d="M22.7079 41.4402C24.2038 40.6601 25.1155 40.6752 26.4806 41.213C28.0887 37.715 29.1757 35.837 32.4091 33.0618C29.6469 33.2821 28.2447 33.4537 27.0196 34.1789C25.908 35.0852 25.2181 35.3868 23.7859 35.296C22.4025 35.1464 21.5699 35.3005 20.0131 35.8546C18.9448 36.147 18.3571 36.6589 17.3184 38.0888C17.2558 38.2011 17.1946 38.3043 17.136 38.403C16.7232 39.0981 16.4424 39.5711 16.7794 41.4402C16.9157 42.26 17.1921 42.4507 17.8573 42.5574L18.3963 43.4182C18.8859 43.5614 19.4065 43.8327 20.0131 44.2331V48.7016H22.7079V41.4402Z" fill="#010000" style="mix-blend-mode:color-burn"/>
<path d="M22.7079 41.4402C24.2038 40.6601 25.1155 40.6752 26.4806 41.213C28.0887 37.715 29.1757 35.837 32.4091 33.0618C29.6469 33.2821 28.2447 33.4537 27.0196 34.1789C25.908 35.0852 25.2181 35.3868 23.7859 35.296C22.4025 35.1464 21.5699 35.3005 20.0131 35.8546C18.9448 36.147 18.3571 36.6589 17.3184 38.0888C17.2558 38.2011 17.1946 38.3043 17.136 38.403C16.7232 39.0981 16.4424 39.5711 16.7794 41.4402C16.9157 42.26 17.1921 42.4507 17.8573 42.5574L18.3963 43.4182C18.8859 43.5614 19.4065 43.8327 20.0131 44.2331V48.7016H22.7079V41.4402Z" stroke="black" stroke-linecap="round" stroke-linejoin="round"/>
<path d="M51.1229 55.4041L51.6619 50.9355L45.1944 52.6112H36.0322L33.3374 53.1698L36.3017 56.8005H47.3502L48.9671 55.4041H51.1229Z" fill="#B7B7B7" style="mix-blend-mode:color-burn"/>
<path d="M51.1229 55.4041L51.6619 50.9355L45.1944 52.6112H36.0322L33.3374 53.1698L36.3017 56.8005H47.3502L48.9671 55.4041H51.1229Z" stroke="black" stroke-linecap="round" stroke-linejoin="round"/>
<path fill-rule="evenodd" clip-rule="evenodd" d="M26.8697 42.2217L27.4087 62.33L32.2593 64.0057L36.032 68.4742C37.3024 69.209 38.0096 69.4197 39.2657 69.5913H46.2722C48.4013 68.3849 49.1386 67.0162 50.0494 65.3256C50.3647 64.7402 50.7009 64.1163 51.1228 63.4471H51.9312L59.7461 52.2758C60.3361 50.748 60.5447 49.5769 60.824 47.2487V37.7532V36.636C58.772 34.6539 57.4678 33.8155 54.8955 32.7261H38.1878C35.9622 32.7352 34.6569 33.0068 32.2593 33.8432C29.0259 36.6185 27.9388 38.4964 26.3308 41.9944C26.5026 42.0621 26.6815 42.138 26.8697 42.2217ZM45.1943 60.0957L38.7268 60.0957L35.7625 56.4651L32.7983 52.8344L35.4931 52.2758H44.6553L51.1228 50.6001L50.5838 55.0686L45.1943 60.0957Z" fill="#FCD1B8" style="mix-blend-mode:color-burn"/>
<path fill-rule="evenodd" clip-rule="evenodd" d="M26.8697 42.2217L27.4087 62.33L32.2593 64.0057L36.032 68.4742C37.3024 69.209 38.0096 69.4197 39.2657 69.5913H46.2722C48.4013 68.3849 49.1386 67.0162 50.0494 65.3256C50.3647 64.7402 50.7009 64.1163 51.1228 63.4471H51.9312L59.7461 52.2758C60.3361 50.748 60.5447 49.5769 60.824 47.2487V37.7532V36.636C58.772 34.6539 57.4678 33.8155 54.8955 32.7261H38.1878C35.9622 32.7352 34.6569 33.0068 32.2593 33.8432C29.0259 36.6185 27.9388 38.4964 26.3308 41.9944C26.5026 42.0621 26.6815 42.138 26.8697 42.2217ZM45.1943 60.0957L38.7268 60.0957L35.7625 56.4651L32.7983 52.8344L35.4931 52.2758H44.6553L51.1228 50.6001L50.5838 55.0686L45.1943 60.0957Z" stroke="black" stroke-linecap="round" stroke-linejoin="round"/>
<path d="M60.9459 35.6309V36.748H65.2576C67.5402 35.2648 68.6617 34.1489 70.1082 31.1624C70.4327 29.9957 70.4862 29.3721 70.1082 28.3696C67.8814 26.2115 66.4269 25.4357 63.6407 24.4596L59.868 23.9011H57.1733L57.0655 22.7839L28.0697 27.2525L14.5958 31.721L10.8231 33.3967C10.4745 33.3241 10.1441 33.2499 9.82952 33.1792C7.95662 32.7586 6.6465 32.4644 5.43352 33.3967C2.68443 35.535 2.01781 36.9485 1.12187 39.5409C0.979229 40.4158 0.940665 40.8439 1.12187 41.2166C2.23948 42.6202 3.17197 43.1202 5.43352 43.4508L8.12827 44.0094C9.83754 43.7857 10.6183 44.1446 11.4593 45.1265C12.9681 45.4321 13.7337 45.5168 14.5958 45.1265L15.1347 45.6851V44.0094C16.427 43.1649 17.3281 42.8905 18.3684 43.1946L17.8295 42.3337C17.1643 42.2271 16.8879 42.0363 16.7516 41.2166C16.4146 39.3474 16.6954 38.8745 17.1081 38.1793C17.1667 38.0806 17.228 37.9775 17.2905 37.8652C18.3293 36.4353 18.917 35.9233 19.9853 35.6309C21.542 35.0768 22.3747 34.9228 23.758 35.0724C25.1902 35.1632 25.8801 34.8615 26.9917 33.9552C28.2168 33.23 29.6191 33.0584 32.3813 32.8381C34.7789 32.0017 36.0842 31.7301 38.3098 31.721H55.0174C57.5897 32.8104 58.894 33.6488 60.9459 35.6309Z" fill="#FBC166" style="mix-blend-mode:color-burn"/>
<path d="M60.9459 35.6309V36.748H65.2576C67.5402 35.2648 68.6617 34.1489 70.1082 31.1624C70.4327 29.9957 70.4862 29.3721 70.1082 28.3696C67.8814 26.2115 66.4269 25.4357 63.6407 24.4596L59.868 23.9011H57.1733L57.0655 22.7839L28.0697 27.2525L14.5958 31.721L10.8231 33.3967C10.4745 33.3241 10.1441 33.2499 9.82952 33.1792C7.95662 32.7586 6.6465 32.4644 5.43352 33.3967C2.68443 35.535 2.01781 36.9485 1.12187 39.5409C0.979229 40.4158 0.940665 40.8439 1.12187 41.2166C2.23948 42.6202 3.17197 43.1202 5.43352 43.4508L8.12827 44.0094C9.83754 43.7857 10.6183 44.1446 11.4593 45.1265C12.9681 45.4321 13.7337 45.5168 14.5958 45.1265L15.1347 45.6851V44.0094C16.427 43.1649 17.3281 42.8905 18.3684 43.1946L17.8295 42.3337C17.1643 42.2271 16.8879 42.0363 16.7516 41.2166C16.4146 39.3474 16.6954 38.8745 17.1081 38.1793C17.1667 38.0806 17.228 37.9775 17.2905 37.8652C18.3293 36.4353 18.917 35.9233 19.9853 35.6309C21.542 35.0768 22.3747 34.9228 23.758 35.0724C25.1902 35.1632 25.8801 34.8615 26.9917 33.9552C28.2168 33.23 29.6191 33.0584 32.3813 32.8381C34.7789 32.0017 36.0842 31.7301 38.3098 31.721H55.0174C57.5897 32.8104 58.894 33.6488 60.9459 35.6309Z" stroke="black" stroke-linecap="round" stroke-linejoin="round"/>
<path d="M52.1469 11.054C52.0679 9.93987 51.8822 9.43139 51.3384 8.81975L47.0268 6.02692C43.9333 3.95522 42.2119 2.82132 40.0204 2.67554H30.3192L26.0075 6.02692C25.8344 8.53083 25.877 9.80791 27.0854 11.054C28.5001 11.639 29.1082 12.0014 29.7802 12.7297C31.7243 16.4255 32.0432 17.6072 31.3971 18.3153C31.2537 18.4739 31.1141 18.6285 30.9779 18.7794C28.9143 21.0654 27.636 22.4814 26.0075 23.3424C22.7416 24.4051 21.7502 24.4476 20.079 24.4595H14.1505H12.5336L11.9946 31.7209C11.9707 32.3663 11.6003 32.7366 10.9167 33.3966L14.6894 31.7209L28.1633 27.2524L57.1591 22.7839C57.3697 20.2778 57.3636 19.1208 56.728 18.3153C56.5867 18.1335 56.4498 17.9581 56.3169 17.7877C54.6628 15.6677 53.6182 14.3288 52.1469 11.054Z" fill="#FEC368" style="mix-blend-mode:color-burn"/>
<path d="M52.1469 11.054C52.0679 9.93987 51.8822 9.43139 51.3384 8.81975L47.0268 6.02692C43.9333 3.95522 42.2119 2.82132 40.0204 2.67554H30.3192L26.0075 6.02692C25.8344 8.53083 25.877 9.80791 27.0854 11.054C28.5001 11.639 29.1082 12.0014 29.7802 12.7297C31.7243 16.4255 32.0432 17.6072 31.3971 18.3153C31.2537 18.4739 31.1141 18.6285 30.9779 18.7794C28.9143 21.0654 27.636 22.4814 26.0075 23.3424C22.7416 24.4051 21.7502 24.4476 20.079 24.4595H14.1505H12.5336L11.9946 31.7209C11.9707 32.3663 11.6003 32.7366 10.9167 33.3966L14.6894 31.7209L28.1633 27.2524L57.1591 22.7839C57.3697 20.2778 57.3636 19.1208 56.728 18.3153C56.5867 18.1335 56.4498 17.9581 56.3169 17.7877C54.6628 15.6677 53.6182 14.3288 52.1469 11.054Z" stroke="black" stroke-linecap="round" stroke-linejoin="round"/>
<path d="M27.4087 11.2775C26.2004 10.0314 26.1577 8.75428 26.3308 6.25037C24.6306 6.24779 23.7416 6.27883 23.0971 6.80894L17.7075 11.836L14.4738 16.8631C13.5289 18.7707 13.1531 19.8667 12.8569 21.8902V24.683H14.4738H20.4023C22.0735 24.671 23.065 24.6285 26.3308 23.5659C27.9593 22.7049 29.2376 21.2889 31.3012 19.0028C31.4374 18.852 31.577 18.6973 31.7204 18.5388C32.3665 17.8307 32.0476 16.649 30.1035 12.9531C29.4315 12.2248 28.8234 11.8624 27.4087 11.2775Z" fill="#CB7229" style="mix-blend-mode:color-burn"/>
<path d="M27.4087 11.2775C26.2004 10.0314 26.1577 8.75428 26.3308 6.25037C24.6306 6.24779 23.7416 6.27883 23.0971 6.80894L17.7075 11.836L14.4738 16.8631C13.5289 18.7707 13.1531 19.8667 12.8569 21.8902V24.683H14.4738H20.4023C22.0735 24.671 23.065 24.6285 26.3308 23.5659C27.9593 22.7049 29.2376 21.2889 31.3012 19.0028C31.4374 18.852 31.577 18.6973 31.7204 18.5388C32.3665 17.8307 32.0476 16.649 30.1035 12.9531C29.4315 12.2248 28.8234 11.8624 27.4087 11.2775Z" stroke="black" stroke-linecap="round" stroke-linejoin="round"/>
<path d="M19.8634 82.8262H21.4802C23.4697 83.7608 24.3026 84.227 25.783 85.0554L25.7919 85.0604L25.6721 83.9433L23.8756 67.1864L23.636 64.9521L27.4088 61.6007L26.8698 41.4924C26.6816 41.4088 26.5026 41.3328 26.3309 41.2651C24.9657 40.7274 24.054 40.7123 22.5582 41.4924V48.7537V56.5737C22.4065 57.9264 22.1623 58.2799 21.4802 58.2494C20.7739 58.3578 20.382 58.4119 19.8634 58.2494V48.7537V44.2852C19.2567 43.8849 18.7362 43.6135 18.2465 43.4704C17.2062 43.1663 16.3051 43.4408 15.0128 44.2852V45.9609V59.3665H12.318L11.779 45.9609C11.6268 45.7564 11.4812 45.5703 11.3374 45.4024C10.4964 44.4205 9.71562 44.0616 8.00635 44.2852L8.5453 64.3936C8.83734 65.4391 9.17572 65.9408 10.1622 66.6278H18.2465L18.581 69.9792L19.8634 82.8262Z" fill="#896E59" style="mix-blend-mode:color-burn"/>
<path d="M19.8634 82.8262H21.4802C23.4697 83.7608 24.3026 84.227 25.783 85.0554L25.7919 85.0604L25.6721 83.9433L23.8756 67.1864L23.636 64.9521L27.4088 61.6007L26.8698 41.4924C26.6816 41.4088 26.5026 41.3328 26.3309 41.2651C24.9657 40.7274 24.054 40.7123 22.5582 41.4924V48.7537V56.5737C22.4065 57.9264 22.1623 58.2799 21.4802 58.2494C20.7739 58.3578 20.382 58.4119 19.8634 58.2494V48.7537V44.2852C19.2567 43.8849 18.7362 43.6135 18.2465 43.4704C17.2062 43.1663 16.3051 43.4408 15.0128 44.2852V45.9609V59.3665H12.318L11.779 45.9609C11.6268 45.7564 11.4812 45.5703 11.3374 45.4024C10.4964 44.4205 9.71562 44.0616 8.00635 44.2852L8.5453 64.3936C8.83734 65.4391 9.17572 65.9408 10.1622 66.6278H18.2465L18.581 69.9792L19.8634 82.8262Z" stroke="black" stroke-linecap="round" stroke-linejoin="round"/>
<path d="M38.7809 60.0962L45.2484 60.0962L50.6379 55.0691H48.4821L46.8652 56.4655H35.8167L38.7809 60.0962Z" fill="#141313" style="mix-blend-mode:color-burn"/>
<path d="M38.7809 60.0962L45.2484 60.0962L50.6379 55.0691H48.4821L46.8652 56.4655H35.8167L38.7809 60.0962Z" stroke="black" stroke-linecap="round" stroke-linejoin="round"/>
<path d="M65.6748 87.242H75.376C76.8747 87.1026 77.8677 86.2373 79.6877 84.4492V83.8906C79.9422 82.8068 79.9949 82.1199 79.6877 80.5392C77.1415 79.4988 75.7231 79.1114 73.2202 78.8635H65.6748V87.242Z" fill="#FBD0B8" style="mix-blend-mode:color-burn"/>
<path d="M65.6748 87.242H75.376C76.8747 87.1026 77.8677 86.2373 79.6877 84.4492V83.8906C79.9422 82.8068 79.9949 82.1199 79.6877 80.5392C77.1415 79.4988 75.7231 79.1114 73.2202 78.8635H65.6748V87.242Z" stroke="black" stroke-linecap="round" stroke-linejoin="round"/>
<path d="M73.22 62.1069V63.7826V75.3417L82.9212 68.2511V63.7826L81.6021 62.1069H73.22Z" fill="#FACFB6" style="mix-blend-mode:color-burn"/>
<path d="M73.22 62.1069V63.7826V75.3417L82.9212 68.2511V63.7826L81.6021 62.1069H73.22Z" stroke="black" stroke-linecap="round" stroke-linejoin="round"/>
<path d="M80.0109 84.2262L78.933 89.8118L76.7772 95.3975L75.6993 99.866C75.3605 101.656 75.3674 102.851 75.6993 105.295C76.5859 106.256 77.4261 106.642 79.472 107.127H124.744L129.056 103.217V89.8118L127.439 92.6047L124.744 95.3975L118.479 95.9561L118.277 96.5146L115.043 99.3074H110.192L106.42 97.6318L103.725 99.866H91.868C90.2865 99.4877 89.4918 99.1348 88.6342 97.6318V80.3163V80.037V79.7577L87.0174 78.082L85.4005 76.4063V71.9378L84.3226 69.145L83.2447 68.0278L73.5435 75.1184V78.6406C76.0463 78.8884 77.4647 79.2758 80.0109 80.3163C80.3182 81.8969 80.2654 82.5839 80.0109 83.6676V84.2262Z" fill="#A92232" style="mix-blend-mode:color-burn"/>
<path d="M80.0109 84.2262L78.933 89.8118L76.7772 95.3975L75.6993 99.866C75.3605 101.656 75.3674 102.851 75.6993 105.295C76.5859 106.256 77.4261 106.642 79.472 107.127H124.744L129.056 103.217V89.8118L127.439 92.6047L124.744 95.3975L118.479 95.9561L118.277 96.5146L115.043 99.3074H110.192L106.42 97.6318L103.725 99.866H91.868C90.2865 99.4877 89.4918 99.1348 88.6342 97.6318V80.3163V80.037V79.7577L87.0174 78.082L85.4005 76.4063V71.9378L84.3226 69.145L83.2447 68.0278L73.5435 75.1184V78.6406C76.0463 78.8884 77.4647 79.2758 80.0109 80.3163C80.3182 81.8969 80.2654 82.5839 80.0109 83.6676V84.2262Z" stroke="black" stroke-linecap="round" stroke-linejoin="round"/>
<path d="M31.1816 41.8408C33.3551 39.2433 34.544 38.9064 36.5712 41.8408" stroke="black" stroke-linecap="round" stroke-linejoin="round"/>
<path d="M42.4995 40.323C44.4729 41.415 46.0323 42.0297 46.8112 43.1158C47.536 44.148 47.4898 44.6262 46.8112 45.3501C46.5106 45.7206 46.0599 45.9591 44.6553 46.4672" stroke="black" stroke-linecap="round" stroke-linejoin="round"/>
<path d="M49.5061 39.7641C50.8683 35.9483 52.0891 36.898 54.3567 39.2056" stroke="black" stroke-linecap="round" stroke-linejoin="round"/>
<path d="M88.3108 80.3161V97.6316C89.1683 99.1347 89.9631 99.4876 91.5445 99.8659H103.402L106.096 97.6316C106.035 97.1898 105.975 96.7697 105.918 96.3745C105.708 94.9079 105.547 93.7834 105.557 93.1631C105.829 92.6608 106.085 92.424 106.635 92.046C106.74 91.3719 106.556 90.8408 106.096 89.8117V87.0189C105.993 86.2852 106.285 85.7055 107.713 84.2261C107.739 84.0143 107.755 83.8295 107.759 83.6675C107.778 83.0386 107.624 82.7518 107.174 82.5504H101.785H97.473L94.2393 81.9918C93.2379 81.9053 92.6161 81.7761 91.0056 80.8747L88.3108 79.7576V80.0369V80.3161Z" fill="#772020" style="mix-blend-mode:color-burn"/>
<path d="M88.3108 80.3161V97.6316C89.1683 99.1347 89.9631 99.4876 91.5445 99.8659H103.402L106.096 97.6316C106.035 97.1898 105.975 96.7697 105.918 96.3745C105.708 94.9079 105.547 93.7834 105.557 93.1631C105.829 92.6608 106.085 92.424 106.635 92.046C106.74 91.3719 106.556 90.8408 106.096 89.8117V87.0189C105.993 86.2852 106.285 85.7055 107.713 84.2261C107.739 84.0143 107.755 83.8295 107.759 83.6675C107.778 83.0386 107.624 82.7518 107.174 82.5504H101.785H97.473L94.2393 81.9918C93.2379 81.9053 92.6161 81.7761 91.0056 80.8747L88.3108 79.7576V80.0369V80.3161Z" stroke="black" stroke-linecap="round" stroke-linejoin="round"/>
<path d="M106.636 92.0459C106.085 92.4239 105.83 92.6607 105.558 93.163C105.547 93.7833 105.708 94.9077 105.919 96.3744C105.975 96.7696 106.035 97.1897 106.097 97.6315L109.87 99.3072H114.72L117.954 96.5144L118.156 95.9558L119.571 92.0459L119.032 86.4602L115.259 83.1088L113.642 82.5503L112.025 81.9917L110.947 82.271L109.87 82.5503L107.76 83.6674C107.755 83.8294 107.739 84.0141 107.714 84.226C106.286 85.7054 105.993 86.2851 106.097 87.0188V89.8116C106.556 90.8407 106.74 91.3718 106.636 92.0459Z" fill="#FDD2B9" style="mix-blend-mode:color-burn"/>
<path d="M106.636 92.0459C106.085 92.4239 105.83 92.6607 105.558 93.163C105.547 93.7833 105.708 94.9077 105.919 96.3744C105.975 96.7696 106.035 97.1897 106.097 97.6315L109.87 99.3072H114.72L117.954 96.5144L118.156 95.9558L119.571 92.0459L119.032 86.4602L115.259 83.1088L113.642 82.5503L112.025 81.9917L110.947 82.271L109.87 82.5503L107.76 83.6674C107.755 83.8294 107.739 84.0141 107.714 84.226C106.286 85.7054 105.993 86.2851 106.097 87.0188V89.8116C106.556 90.8407 106.74 91.3718 106.636 92.0459Z" stroke="black" stroke-linecap="round" stroke-linejoin="round"/>
<path d="M128.948 84.6728L126.253 78.5286L124.881 74.6187L123.019 77.97L120.325 80.7629H115.07L113.857 82.4386L115.474 82.9971L119.247 86.3485L119.786 91.9341L118.371 95.8441L124.636 95.2855L127.331 92.4927L128.948 89.6999V84.6728Z" fill="#FBD0B7" style="mix-blend-mode:color-burn"/>
<path d="M128.948 84.6728L126.253 78.5286L124.881 74.6187L123.019 77.97L120.325 80.7629H115.07L113.857 82.4386L115.474 82.9971L119.247 86.3485L119.786 91.9341L118.371 95.8441L124.636 95.2855L127.331 92.4927L128.948 89.6999V84.6728Z" stroke="black" stroke-linecap="round" stroke-linejoin="round"/>
<path d="M117.064 78.7929L115.447 79.91L115.043 80.4686H120.298L122.993 77.6758L124.854 74.3244L124.07 72.0901L118.681 68.0278L117.603 71.5316L117.064 78.7929Z" fill="#AE2434" style="mix-blend-mode:color-burn"/>
<path d="M117.064 78.7929L115.447 79.91L115.043 80.4686H120.298L122.993 77.6758L124.854 74.3244L124.07 72.0901L118.681 68.0278L117.603 71.5316L117.064 78.7929Z" stroke="black" stroke-linecap="round" stroke-linejoin="round"/>
<path d="M117.954 67.5162V65.2819C118.58 62.2082 119.236 60.8056 121.726 59.6963C125.431 56.9602 126.768 54.6754 127.655 49.0836V46.8493C127.649 44.3411 127.359 43.3118 126.577 41.8222C122.216 36.972 119.726 35.7753 115.259 34.5609C112.835 33.6699 110.917 32.9788 109.33 32.5032C113.814 37.3016 116.082 40.3885 118.492 48.525C119.33 50.805 119.301 51.9927 118.492 54.1107L113.642 59.6963C113.25 60.0022 112.9 60.2455 112.564 60.4443L113.642 60.9478V64.7234L112.025 65.2819L110.947 67.9224L111.486 71.9847L108.791 75.3361V77.5704L110.947 81.7596L112.025 81.4803L113.642 82.0389L114.855 80.3632L115.259 79.8046L116.876 78.6875L117.415 71.4261L118.492 67.9224L117.954 67.5162Z" fill="#874637" style="mix-blend-mode:color-burn"/>
<path d="M117.954 67.5162V65.2819C118.58 62.2082 119.236 60.8056 121.726 59.6963C125.431 56.9602 126.768 54.6754 127.655 49.0836V46.8493C127.649 44.3411 127.359 43.3118 126.577 41.8222C122.216 36.972 119.726 35.7753 115.259 34.5609C112.835 33.6699 110.917 32.9788 109.33 32.5032C113.814 37.3016 116.082 40.3885 118.492 48.525C119.33 50.805 119.301 51.9927 118.492 54.1107L113.642 59.6963C113.25 60.0022 112.9 60.2455 112.564 60.4443L113.642 60.9478V64.7234L112.025 65.2819L110.947 67.9224L111.486 71.9847L108.791 75.3361V77.5704L110.947 81.7596L112.025 81.4803L113.642 82.0389L114.855 80.3632L115.259 79.8046L116.876 78.6875L117.415 71.4261L118.492 67.9224L117.954 67.5162Z" stroke="black" stroke-linecap="round" stroke-linejoin="round"/>
<path fill-rule="evenodd" clip-rule="evenodd" d="M108.791 78.0364L106.635 74.6851L98.551 73.5679L98.012 78.0364H93.7003L93.1614 75.2436L92.0835 73.5679L91.824 73.2783L89.9277 75.2436L88.3108 76.3607V79.7121L91.0056 80.8293C92.6161 81.7307 93.2379 81.8598 94.2393 81.9464L97.473 82.5049H101.785H107.174C107.624 82.7064 107.778 82.9932 107.759 83.6221L109.869 82.5049L110.947 82.2257L108.791 78.0364Z" fill="#858582" style="mix-blend-mode:color-burn"/>
<path fill-rule="evenodd" clip-rule="evenodd" d="M108.791 78.0364L106.635 74.6851L98.551 73.5679L98.012 78.0364H93.7003L93.1614 75.2436L92.0835 73.5679L91.824 73.2783L89.9277 75.2436L88.3108 76.3607V79.7121L91.0056 80.8293C92.6161 81.7307 93.2379 81.8598 94.2393 81.9464L97.473 82.5049H101.785H107.174C107.624 82.7064 107.778 82.9932 107.759 83.6221L109.869 82.5049L110.947 82.2257L108.791 78.0364Z" stroke="black" stroke-linecap="round" stroke-linejoin="round"/>
<path d="M98.2715 78.0817L98.8105 73.6132L97.1936 71.3789H93.9599L92.0835 72.5167L92.343 73.0546L92.0835 73.3236L92.343 73.6132L93.4209 75.2889L93.9599 78.0817H98.2715Z" fill="#6A381F" style="mix-blend-mode:color-burn"/>
<path d="M98.2715 78.0817L98.8105 73.6132L97.1936 71.3789H93.9599L92.0835 72.5167L92.343 73.0546L92.0835 73.3236L92.343 73.6132L93.4209 75.2889L93.9599 78.0817H98.2715Z" stroke="black" stroke-linecap="round" stroke-linejoin="round"/>
<path d="M109.695 61.6943V63.9286H109.156L105.024 68.6434L98.9158 69.5142L95.682 68.6434L94.0652 65.6042L92.4483 63.37L90.7705 62.8114L90.6821 65.0457L90.8314 70.6313L91.6498 72.3277L93.5262 71.1899H96.76L98.3768 73.4241L106.461 74.5413L108.617 77.8927V75.6584L111.312 72.307L110.773 68.2447L111.851 65.6042L113.468 65.0457V61.2701L112.39 60.7666C111.563 61.255 110.814 61.4747 109.695 61.6943Z" fill="#AF2535" style="mix-blend-mode:color-burn"/>
<path d="M109.695 61.6943V63.9286H109.156L105.024 68.6434L98.9158 69.5142L95.682 68.6434L94.0652 65.6042L92.4483 63.37L90.7705 62.8114L90.6821 65.0457L90.8314 70.6313L91.6498 72.3277L93.5262 71.1899H96.76L98.3768 73.4241L106.461 74.5413L108.617 77.8927V75.6584L111.312 72.307L110.773 68.2447L111.851 65.6042L113.468 65.0457V61.2701L112.39 60.7666C111.563 61.255 110.814 61.4747 109.695 61.6943Z" stroke="black" stroke-linecap="round" stroke-linejoin="round"/>
<path d="M78.4668 39.091C77.1649 39.8001 76.8862 40.6165 77.3889 43.001C76.8458 44.1421 76.8756 44.8858 77.3889 46.3524L79.0058 48.5866C77.0902 52.8619 77.5001 53.8042 79.0058 54.7308C82.2761 56.9391 82.974 58.1619 82.2395 60.3165V61.9922H81.9983L83.3174 63.6679V68.1364L84.3954 69.2535L85.4733 72.0463V76.5149L87.0901 78.1905L88.707 79.8662V76.5149L90.3239 75.3977L92.2202 73.4324L92.4797 73.1635L92.2202 72.6256L91.4018 70.9292L91.2525 65.3436L91.3408 63.1093L91.4018 61.568C91.2304 61.5266 91.0511 61.4819 90.8628 61.4336L86.0122 56.4065C84.2298 54.5582 83.2378 53.5235 83.3174 51.938L82.7785 44.6767C82.6621 43.0047 82.8583 41.9655 84.3954 39.6496C85.8672 38.0448 86.7759 37.2036 89.246 36.2982C90.9961 35.5406 91.7652 34.8387 92.4797 32.7261C90.4394 32.7866 88.1969 32.8568 85.4733 32.9468C82.5102 36.5135 80.8498 38.5104 78.4668 39.091Z" fill="#884637" style="mix-blend-mode:color-burn"/>
<path d="M78.4668 39.091C77.1649 39.8001 76.8862 40.6165 77.3889 43.001C76.8458 44.1421 76.8756 44.8858 77.3889 46.3524L79.0058 48.5866C77.0902 52.8619 77.5001 53.8042 79.0058 54.7308C82.2761 56.9391 82.974 58.1619 82.2395 60.3165V61.9922H81.9983L83.3174 63.6679V68.1364L84.3954 69.2535L85.4733 72.0463V76.5149L87.0901 78.1905L88.707 79.8662V76.5149L90.3239 75.3977L92.2202 73.4324L92.4797 73.1635L92.2202 72.6256L91.4018 70.9292L91.2525 65.3436L91.3408 63.1093L91.4018 61.568C91.2304 61.5266 91.0511 61.4819 90.8628 61.4336L86.0122 56.4065C84.2298 54.5582 83.2378 53.5235 83.3174 51.938L82.7785 44.6767C82.6621 43.0047 82.8583 41.9655 84.3954 39.6496C85.8672 38.0448 86.7759 37.2036 89.246 36.2982C90.9961 35.5406 91.7652 34.8387 92.4797 32.7261C90.4394 32.7866 88.1969 32.8568 85.4733 32.9468C82.5102 36.5135 80.8498 38.5104 78.4668 39.091Z" stroke="black" stroke-linecap="round" stroke-linejoin="round"/>
<path fill-rule="evenodd" clip-rule="evenodd" d="M108.819 32.7127C106.782 32.1022 105.289 31.8464 103.968 31.9776C102.776 32.0094 101.677 32.0384 100.635 32.0659L100.62 32.0663C97.4 32.1513 94.728 32.2218 91.5723 32.3154C90.8578 34.428 90.0887 35.1299 88.3385 35.8876C85.8684 36.7929 84.9598 37.6341 83.4879 39.2389C81.9509 41.5548 81.7547 42.594 81.871 44.266L82.41 51.5274C82.3304 53.1128 83.3223 54.1476 85.1048 55.9959L89.9554 61.0229C90.1437 61.0712 90.3229 61.1159 90.4943 61.1573C92.3542 61.6066 93.283 61.6638 94.6341 61.5815L96.4229 63.8158H108.819H109.358V61.5815C110.477 61.3619 111.226 61.1422 112.053 60.6538C112.389 60.455 112.738 60.2117 113.13 59.9058L117.981 54.3202C118.79 52.2022 118.819 51.0146 117.981 48.7345C115.571 40.598 113.303 37.5112 108.819 32.7127ZM91.0333 47.6174L97.5008 50.9688L106.124 52.0859L104.687 56.5544L104.507 57.113C103.393 58.7885 102.668 59.3327 101.273 59.9058C97.9557 59.8939 96.8707 59.56 95.3449 58.7887C92.377 57.2744 91.366 56.419 91.0333 54.8787L90.345 52.3821L89.9554 50.9688L91.0333 47.6174Z" fill="#F8CEB5" style="mix-blend-mode:color-burn"/>
<path fill-rule="evenodd" clip-rule="evenodd" d="M108.819 32.7127C106.782 32.1022 105.289 31.8464 103.968 31.9776C102.776 32.0094 101.677 32.0384 100.635 32.0659L100.62 32.0663C97.4 32.1513 94.728 32.2218 91.5723 32.3154C90.8578 34.428 90.0887 35.1299 88.3385 35.8876C85.8684 36.7929 84.9598 37.6341 83.4879 39.2389C81.9509 41.5548 81.7547 42.594 81.871 44.266L82.41 51.5274C82.3304 53.1128 83.3223 54.1476 85.1048 55.9959L89.9554 61.0229C90.1437 61.0712 90.3229 61.1159 90.4943 61.1573C92.3542 61.6066 93.283 61.6638 94.6341 61.5815L96.4229 63.8158H108.819H109.358V61.5815C110.477 61.3619 111.226 61.1422 112.053 60.6538C112.389 60.455 112.738 60.2117 113.13 59.9058L117.981 54.3202C118.79 52.2022 118.819 51.0146 117.981 48.7345C115.571 40.598 113.303 37.5112 108.819 32.7127ZM91.0333 47.6174L97.5008 50.9688L106.124 52.0859L104.687 56.5544L104.507 57.113C103.393 58.7885 102.668 59.3327 101.273 59.9058C97.9557 59.8939 96.8707 59.56 95.3449 58.7887C92.377 57.2744 91.366 56.419 91.0333 54.8787L90.345 52.3821L89.9554 50.9688L91.0333 47.6174Z" stroke="black" stroke-linecap="round" stroke-linejoin="round"/>
<path d="M90.4666 50.712L91.5445 48.4778L97.473 51.2706L105.557 52.3877L104.479 55.7391H98.5509L95.3172 55.1806L90.4666 51.8292V50.712Z" fill="#C4C4C4"/>
<g opacity="0.6">
<path d="M96.6716 63.6147L94.8828 61.3805C93.5317 61.4627 92.603 61.4056 90.7431 60.9563L90.6821 62.4976L92.36 63.0562L93.9768 65.2904L95.5937 68.3296L98.8274 69.2004L104.936 68.3296L109.068 63.6147H96.6716Z" fill="#F8CEB5" style="mix-blend-mode:color-burn"/>
<path d="M96.6716 63.6147L94.8828 61.3805C93.5317 61.4627 92.603 61.4056 90.7431 60.9563L90.6821 62.4976L92.36 63.0562L93.9768 65.2904L95.5937 68.3296L98.8274 69.2004L104.936 68.3296L109.068 63.6147H96.6716Z" stroke="black" stroke-linecap="round" stroke-linejoin="round"/>
</g>
<path d="M134.042 46.5504L136.198 44.3162C137.26 41.4854 137.275 39.8866 136.198 37.0548C134.332 34.3086 132.833 32.9476 129.192 30.9106L127.575 29.7935L117.335 26.4421C116.65 26.1798 116.057 25.9346 115.498 25.704C113.469 24.8659 111.906 24.2206 108.172 23.6493L87.692 23.0907C86.5814 22.8375 85.7818 23.19 84.4981 23.756C84.1814 23.8956 83.8353 24.0482 83.4477 24.2079L83.3804 24.7664L82.3025 25.8835C81.6708 26.4051 81.3182 26.4228 80.6856 25.8835L79.6077 23.6493C78.316 23.0806 77.7334 23.0975 76.9129 23.6493L76.374 27.5592C74.8933 28.206 74.2639 28.7769 73.6792 30.3521C73.0116 32.3155 73.1248 33.4156 73.6792 35.3791C75.1586 37.6228 76.3135 37.9749 78.5298 38.172C80.9127 37.5913 82.5731 35.5944 85.5362 32.0278C88.2598 31.9377 90.5023 31.8675 92.5426 31.807C95.6984 31.7134 98.3704 31.6429 101.59 31.5579L101.605 31.5575C102.647 31.53 103.747 31.501 104.939 31.4692C106.26 31.338 107.752 31.5938 109.789 32.2043C111.376 32.6799 113.294 33.3709 115.718 34.262C120.185 35.4764 122.675 36.6731 127.036 41.5233C127.818 43.0129 128.108 44.0422 128.114 46.5504C128.354 46.612 128.583 46.6732 128.804 46.732C130.709 47.2399 131.967 47.5752 134.042 46.5504Z" fill="#FEC367" style="mix-blend-mode:color-burn"/>
<path d="M134.042 46.5504L136.198 44.3162C137.26 41.4854 137.275 39.8866 136.198 37.0548C134.332 34.3086 132.833 32.9476 129.192 30.9106L127.575 29.7935L117.335 26.4421C116.65 26.1798 116.057 25.9346 115.498 25.704C113.469 24.8659 111.906 24.2206 108.172 23.6493L87.692 23.0907C86.5814 22.8375 85.7818 23.19 84.4981 23.756C84.1814 23.8956 83.8353 24.0482 83.4477 24.2079L83.3804 24.7664L82.3025 25.8835C81.6708 26.4051 81.3182 26.4228 80.6856 25.8835L79.6077 23.6493C78.316 23.0806 77.7334 23.0975 76.9129 23.6493L76.374 27.5592C74.8933 28.206 74.2639 28.7769 73.6792 30.3521C73.0116 32.3155 73.1248 33.4156 73.6792 35.3791C75.1586 37.6228 76.3135 37.9749 78.5298 38.172C80.9127 37.5913 82.5731 35.5944 85.5362 32.0278C88.2598 31.9377 90.5023 31.8675 92.5426 31.807C95.6984 31.7134 98.3704 31.6429 101.59 31.5579L101.605 31.5575C102.647 31.53 103.747 31.501 104.939 31.4692C106.26 31.338 107.752 31.5938 109.789 32.2043C111.376 32.6799 113.294 33.3709 115.718 34.262C120.185 35.4764 122.675 36.6731 127.036 41.5233C127.818 43.0129 128.108 44.0422 128.114 46.5504C128.354 46.612 128.583 46.6732 128.804 46.732C130.709 47.2399 131.967 47.5752 134.042 46.5504Z" stroke="black" stroke-linecap="round" stroke-linejoin="round"/>
<path d="M127.587 29.4868V22.2254C128.88 22.544 129.605 22.7181 130.821 21.6669C131.672 19.2435 132.04 17.963 131.36 16.6398L129.743 13.847C129.297 13.6023 129.049 13.7054 128.665 14.4055C128.665 14.4055 128.665 17.7569 128.126 17.7569H127.048L126.509 12.7298L125.97 12.0189L124.892 14.9641C124.309 15.9445 123.944 16.4097 123.276 17.1984C123.021 17.3792 122.818 17.5495 122.627 17.7104C121.758 18.4426 121.118 18.981 116.808 19.4326C116.287 19.4463 115.783 19.4619 115.298 19.477C110.867 19.6149 107.964 19.7053 107.646 17.7569L107.624 17.6514L107.616 17.6119C107.374 16.4387 107.23 15.738 103.873 12.7298C103.099 11.2075 103.046 10.269 104.412 8.26133C107.478 4.9156 109.753 3.48746 114.575 1.55856L113.574 1H101.178L95.2499 4.35139L89.3213 10.4956L83.9318 19.9912L83.4602 23.9011C83.8477 23.7414 84.1939 23.5888 84.5105 23.4492C85.7942 22.8833 86.5938 22.5308 87.7045 22.784L108.185 23.3426C111.919 23.9139 113.481 24.5592 115.511 25.3972C116.069 25.6279 116.663 25.8731 117.347 26.1354L127.587 29.4868Z" fill="#FEC368" style="mix-blend-mode:color-burn"/>
<path d="M127.587 29.4868V22.2254C128.88 22.544 129.605 22.7181 130.821 21.6669C131.672 19.2435 132.04 17.963 131.36 16.6398L129.743 13.847C129.297 13.6023 129.049 13.7054 128.665 14.4055C128.665 14.4055 128.665 17.7569 128.126 17.7569H127.048L126.509 12.7298L125.97 12.0189L124.892 14.9641C124.309 15.9445 123.944 16.4097 123.276 17.1984C123.021 17.3792 122.818 17.5495 122.627 17.7104C121.758 18.4426 121.118 18.981 116.808 19.4326C116.287 19.4463 115.783 19.4619 115.298 19.477C110.867 19.6149 107.964 19.7053 107.646 17.7569L107.624 17.6514L107.616 17.6119C107.374 16.4387 107.23 15.738 103.873 12.7298C103.099 11.2075 103.046 10.269 104.412 8.26133C107.478 4.9156 109.753 3.48746 114.575 1.55856L113.574 1H101.178L95.2499 4.35139L89.3213 10.4956L83.9318 19.9912L83.4602 23.9011C83.8477 23.7414 84.1939 23.5888 84.5105 23.4492C85.7942 22.8833 86.5938 22.5308 87.7045 22.784L108.185 23.3426C111.919 23.9139 113.481 24.5592 115.511 25.3972C116.069 25.6279 116.663 25.8731 117.347 26.1354L127.587 29.4868Z" stroke="black" stroke-linecap="round" stroke-linejoin="round"/>
<path d="M120.653 5.13337L114.647 1.78198C109.825 3.71088 107.55 5.13902 104.484 8.48475C103.118 10.4924 103.171 11.4309 103.945 12.9533C107.302 15.9615 107.446 16.6621 107.688 17.8353L107.696 17.8749L107.718 17.9803C108.036 19.9287 110.939 19.8384 115.369 19.7005C115.855 19.6854 116.359 19.6697 116.88 19.656C121.19 19.2045 121.829 18.666 122.699 17.9339C122.89 17.7729 123.092 17.6026 123.347 17.4218C124.016 16.6331 124.381 16.168 124.964 15.1875L126.042 12.2424L120.653 5.13337Z" fill="#CB7229" style="mix-blend-mode:color-burn"/>
<path d="M120.653 5.13337L114.647 1.78198C109.825 3.71088 107.55 5.13902 104.484 8.48475C103.118 10.4924 103.171 11.4309 103.945 12.9533C107.302 15.9615 107.446 16.6621 107.688 17.8353L107.696 17.8749L107.718 17.9803C108.036 19.9287 110.939 19.8384 115.369 19.7005C115.855 19.6854 116.359 19.6697 116.88 19.656C121.19 19.2045 121.829 18.666 122.699 17.9339C122.89 17.7729 123.092 17.6026 123.347 17.4218C124.016 16.6331 124.381 16.168 124.964 15.1875L126.042 12.2424L120.653 5.13337Z" stroke="black" stroke-linecap="round" stroke-linejoin="round"/>
<path d="M101.395 59.5764C102.789 59.0033 103.515 58.4591 104.629 56.7836L104.808 56.225H104.09H98.7002L95.4665 55.6665L93.3107 53.9908L90.4666 52.0527L91.1548 54.5493C91.4875 56.0896 92.4985 56.945 95.4665 58.4593C96.9923 59.2306 98.0772 59.5645 101.395 59.5764Z" fill="#5E5D5D" style="mix-blend-mode:color-burn"/>
<path d="M101.395 59.5764C102.789 59.0033 103.515 58.4591 104.629 56.7836L104.808 56.225H104.09H98.7002L95.4665 55.6665L93.3107 53.9908L90.4666 52.0527L91.1548 54.5493C91.4875 56.0896 92.4985 56.945 95.4665 58.4593C96.9923 59.2306 98.0772 59.5645 101.395 59.5764Z" stroke="black" stroke-linecap="round" stroke-linejoin="round"/>
<path d="M87.772 39.7641C92.7535 36.0328 93.9322 36.8266 94.2394 41.4398" stroke="black" stroke-linecap="round" stroke-linejoin="round"/>
<path d="M99.0902 41.9985L94.2396 43.6742C94.2396 43.6742 93.1617 44.2328 94.2396 45.3499C95.3175 46.467 99.0902 47.0256 99.0902 47.0256" stroke="black" stroke-linecap="round" stroke-linejoin="round"/>
<path d="M104.479 43.1158C108.771 38.7064 109.259 40.8684 109.869 45.3501" stroke="black" stroke-linecap="round" stroke-linejoin="round"/>
</svg>
